<?xml version="1.0" encoding="utf-8"?>
<!-- Generator: Adobe Illustrator 26.0.1, SVG Export Plug-In . SVG Version: 6.00 Build 0)  -->
<svg version="1.1"
	 id="svg5296" xmlns:cc="http://creativecommons.org/ns#" xmlns:dc="http://purl.org/dc/elements/1.1/" xmlns:rdf="http://www.w3.org/1999/02/22-rdf-syntax-ns#" xmlns:svg="http://www.w3.org/2000/svg"
	 xmlns="http://www.w3.org/2000/svg" xmlns:xlink="http://www.w3.org/1999/xlink" x="0px" y="0px" viewBox="0 0 333.3 120"
	 style="enable-background:new 0 0 333.3 120;" xml:space="preserve">
<style type="text/css">
	.st0{fill:#B18F1F;}
	.st1{clip-path:url(#SVGID_00000096020347768813216900000000224496552739263152_);}
	.st2{fill:#122657;}
	.st3{fill:#ED1C24;}
</style>
<g id="g544_00000062192510503343450150000000311485120881664136_">
	<g id="g550_00000099625208514782363070000015353166223509720756_" transform="translate(226.839,4497.8794)">
		<path id="path552_00000000203696839562995570000015379238414435355284_" class="st0" d="M-8.1-4425.6c0,0-2.8,24.1-48,47.5l-0.1,0
			c-45.2-23.4-48-47.5-48-47.5v-71.8h96.1L-8.1-4425.6L-8.1-4425.6"/>
	</g>
</g>
<g id="layer1" transform="translate(-201.90455,-446.64015)">
	<g id="g554" transform="matrix(1.25,0,0,-1.25,14.405804,6141.5339)">
		<g>
			<defs>
				<path id="SVGID_1_" d="M248.2,4555.6v-57.5c0,0,2.2-19.2,38.4-38l0,0l0.1,0c36.1,18.7,38.4,38,38.4,38l0,0l0,0v57.5H248.2z"/>
			</defs>
			<clipPath id="SVGID_00000124859717911458431260000005079454048929983924_">
				<use xlink:href="#SVGID_1_"  style="overflow:visible;"/>
			</clipPath>
			<g id="g556" style="clip-path:url(#SVGID_00000124859717911458431260000005079454048929983924_);">
				<g id="g562" transform="translate(149.8922,4521.7207)">
					<path id="path564" class="st2" d="M98.2,0.2l38.5,22.5V11.2L98.2-9.9V0.2z"/>
				</g>
				<g id="g566" transform="translate(188.3936,4544.2441)">
					<path id="path568" class="st3" d="M98.2,0.2l38.5-22.5v-10.1L98.2-11.3"/>
				</g>
				<g id="g570" transform="translate(188.4099,4512.4741)">
					<path id="path572" class="st2" d="M98.2,0.2l36.6-20c0,0,1.4,2.9,1.8,5.2c0.2,0.9,0,3.8,0,3.8L98.2,11.7V0.2"/>
				</g>
				<g id="g574" transform="translate(188.4015,4512.4741)">
					<path id="path576" class="st3" d="M98.2,0.2L61.6-19.9c0,0-0.8,1.7-1.6,4.3c-0.4,1.4-0.2,4.8-0.2,4.8l38.4,22.5V0.2"/>
				</g>
				<g id="g578" transform="translate(188.4099,4492.1851)">
					<path id="path580" class="st3" d="M98.2,0.2l26-14.2c0,0,3.2,3,6.1,7L98.2,11.7V0.2"/>
				</g>
				<g id="g582" transform="translate(188.4015,4492.189)">
					<path id="path584" class="st2" d="M98.2,0.2L72.1-13.8c0,0-5.2,5.5-6,6.8c0,0,0,0,0,0l32.1,18.8V0.2"/>
				</g>
			</g>
		</g>
	</g>
</g>
</svg>
